<?xml version="1.0" encoding="UTF-8"?>
<!-- Generated by jsxcad -->
<!DOCTYPE svg PUBLIC "-//W3C//DTD SVG 1.1 Tiny//EN" "http://www.w3.org/Graphics/SVG/1.1/DTD/svg11-tiny.dtd">
<svg baseProfile="tiny" height="1015.0000000000014mm" width="1100.0000000000023mm" viewBox="-550.0000000000011 -507.5000000000007 1100.0000000000023 1015.0000000000014" version="1.1" stroke="black" stroke-width=".1" fill="none" xmlns="http://www.w3.org/2000/svg">
<path fill="#c4d3ac" stroke="#c4d3ac" d="M-204.54545454545453 -270.73170731707313 L-200.55555555555554 -242.85714285714283 L-200.55555555555554 -242.85714285714283 L-204.54545454545453 -270.73170731707313 z"/>
<path fill="#c4d3ac" stroke="#c4d3ac" d="M-200.55555555555554 -242.85714285714283 L-200.55555555555554 -242.85714285714283 L-212.1951219512195 -217.24137931034483 L-212.1951219512195 -217.24137931034483 z"/>
<path fill="#c4d3ac" stroke="#c4d3ac" d="M-250 -300 L-250 -300 L-277.027027027027 -292.1052631578947 L-277.027027027027 -292.1052631578947 z"/>
<path fill="#c4d3ac" stroke="#c4d3ac" d="M-295.45454545454544 -270.73170731707313 L-295.45454545454544 -270.73170731707313 L-277.027027027027 -292.1052631578947 L-277.027027027027 -292.1052631578947 z"/>
<path fill="#c4d3ac" stroke="#c4d3ac" d="M-222.97297297297297 -292.1052631578947 L-250 -300 L-250 -300 L-222.97297297297297 -292.1052631578947 z"/>
<path fill="#c4d3ac" stroke="#c4d3ac" d="M-264.0625 -202 L-264.0625 -202 L-235.9375 -202 L-235.9375 -202 z"/>
<path fill="#c4d3ac" stroke="#c4d3ac" d="M-287.80487804878044 -217.24137931034483 L-264.0625 -202 L-264.0625 -202 L-287.80487804878044 -217.24137931034483 z"/>
<path fill="#c4d3ac" stroke="#c4d3ac" d="M-235.9375 -202 L-235.9375 -202 L-212.1951219512195 -217.24137931034483 L-212.1951219512195 -217.24137931034483 z"/>
<path fill="#c4d3ac" stroke="#c4d3ac" d="M-299.4444444444444 -242.85714285714283 L-299.4444444444444 -242.85714285714283 L-295.45454545454544 -270.73170731707313 L-295.45454545454544 -270.73170731707313 z"/>
<path fill="#c4d3ac" stroke="#c4d3ac" d="M-287.80487804878044 -217.24137931034483 L-299.4444444444444 -242.85714285714283 L-299.4444444444444 -242.85714285714283 L-287.80487804878044 -217.24137931034483 z"/>
<path fill="#c4d3ac" stroke="#c4d3ac" d="M550 -506.5 L-549 -506.5 L-549 507.5 L550 507.5 z M-299.4444444444444 -242.85714285714283 L-295.45454545454544 -270.73170731707313 L-277.027027027027 -292.1052631578947 L-250 -300 L-222.97297297297297 -292.1052631578947 L-204.54545454545453 -270.73170731707313 L-200.55555555555554 -242.85714285714283 L-212.1951219512195 -217.24137931034483 L-235.9375 -202 L-264.0625 -202 L-287.80487804878044 -217.24137931034483 z"/>
<path fill="#c4d3ac" stroke="#c4d3ac" d="M-549 -506.5 L550 -506.5 L550 507.5 L-549 507.5 z M-250 -300 L-277.027027027027 -292.1052631578947 L-295.45454545454544 -270.73170731707313 L-299.4444444444444 -242.85714285714283 L-287.80487804878044 -217.24137931034483 L-264.0625 -202 L-235.9375 -202 L-212.1951219512195 -217.24137931034483 L-200.55555555555554 -242.85714285714283 L-204.54545454545453 -270.73170731707313 L-222.97297297297297 -292.1052631578947 z"/>
<path fill="#c4d3ac" stroke="#c4d3ac" d="M550 -506.5 L-549 -506.5 L-549 -506.5 L550 -506.5 z"/>
<path fill="#c4d3ac" stroke="#c4d3ac" d="M550 507.5 L550 -506.5 L550 -506.5 L550 507.5 z"/>
<path fill="#c4d3ac" stroke="#c4d3ac" d="M-549 507.5 L550 507.5 L550 507.5 L-549 507.5 z"/>
<path fill="#c4d3ac" stroke="#c4d3ac" d="M-549 -506.5 L-549 507.5 L-549 507.5 L-549 -506.5 z"/>
<path fill="#c4d3ac" stroke="#c4d3ac" d="M-222.97297297297297 -292.1052631578947 L-204.54545454545453 -270.73170731707313 L-204.54545454545453 -270.73170731707313 L-222.97297297297297 -292.1052631578947 z"/>
<path fill="#3c3c3c" stroke="#3c3c3c" d="M-255.70324184273164 -217.74166368251426 L-251.2435640108212 -242.96622741949557 L-204.27893156013104 -234.66292701723336 L-212.1951219512195 -217.24137931034483 L-220.9791606209705 -211.6024805880962 z"/>
<path fill="#3c3c3c" stroke="#3c3c3c" d="M-218.77658483313306 -287.23799160478694 L-222.97297297297297 -292.1052631578947 L-241.5941601533697 -297.54460993953694 L-242.66951740989614 -291.4622383692891 z"/>
<path fill="#3c3c3c" stroke="#3c3c3c" d="M-203.41250574400624 -262.8166060887658 L-246.3906312856653 -270.41509602634204 L-242.66951740989614 -291.4622383692891 L-218.77658483313306 -287.23799160478694 L-204.54545454545453 -270.73170731707313 z"/>
<path fill="#3c3c3c" stroke="#3c3c3c" d="M-204.54545454545453 -270.73170731707313 L-218.77658483313306 -287.23799160478694 L-242.66951740989614 -291.4622383692891 L-246.3906312856653 -270.41509602634204 L-203.41250574400624 -262.8166060887658 z"/>
<path fill="#3c3c3c" stroke="#3c3c3c" d="M-218.77658483313306 -287.23799160478694 L-242.66951740989614 -291.4622383692891 L-241.5941601533697 -297.54460993953694 L-222.97297297297297 -292.1052631578947 z"/>
<path fill="#3c3c3c" stroke="#3c3c3c" d="M-254.21052631578945 -202 L-258.35675015271835 -202.73304825901036 L-255.70324184273164 -217.74166368251426 L-220.9791606209705 -211.6024805880962 L-235.9375 -202 z"/>
<path fill="#3c3c3c" stroke="#3c3c3c" d="M-254.21052631578945 -202 L-258.35675015271835 -202.73304825901036 L-258.35675015271835 -202.73304825901036 L-254.21052631578945 -202 z"/>
<path fill="#3c3c3c" stroke="#3c3c3c" d="M-241.5941601533697 -297.54460993953694 L-241.5941601533697 -297.54460993953694 L-242.66951740989614 -291.4622383692891 L-246.3906312856653 -270.41509602634204 L-251.2435640108212 -242.96622741949557 L-255.70324184273164 -217.74166368251426 L-258.35675015271835 -202.73304825901036 L-258.35675015271835 -202.73304825901036 L-255.70324184273164 -217.74166368251426 L-251.2435640108212 -242.96622741949557 L-246.3906312856653 -270.41509602634204 L-242.66951740989614 -291.4622383692891 z"/>
<path fill="#3c3c3c" stroke="#3c3c3c" d="M-212.1951219512195 -217.24137931034483 L-212.1951219512195 -217.24137931034483 L-235.9375 -202 L-235.9375 -202 L-220.9791606209705 -211.6024805880962 z"/>
<path fill="#3c3c3c" stroke="#3c3c3c" d="M-235.9375 -202 L-235.9375 -202 L-212.1951219512195 -217.24137931034483 L-212.1951219512195 -217.24137931034483 L-220.9791606209705 -211.6024805880962 z"/>
<path fill="#3c3c3c" stroke="#3c3c3c" d="M-220.9791606209705 -211.6024805880962 L-255.70324184273164 -217.74166368251426 L-258.35675015271835 -202.73304825901036 L-254.21052631578945 -202 L-235.9375 -202 z"/>
<path fill="#3c3c3c" stroke="#3c3c3c" d="M-212.1951219512195 -217.24137931034483 L-212.1951219512195 -217.24137931034483 L-200.55555555555554 -242.85714285714283 L-200.55555555555554 -242.85714285714283 L-204.27893156013104 -234.66292701723336 z"/>
<path fill="#3c3c3c" stroke="#3c3c3c" d="M-200.55555555555554 -242.85714285714283 L-200.55555555555554 -242.85714285714283 L-212.1951219512195 -217.24137931034483 L-212.1951219512195 -217.24137931034483 L-204.27893156013104 -234.66292701723336 z"/>
<path fill="#3c3c3c" stroke="#3c3c3c" d="M-241.5941601533697 -297.54460993953694 L-241.5941601533697 -297.54460993953694 L-222.97297297297297 -292.1052631578947 L-222.97297297297297 -292.1052631578947 L-250 -300 L-250 -300 L-222.97297297297297 -292.1052631578947 L-222.97297297297297 -292.1052631578947 z"/>
<path fill="#3c3c3c" stroke="#3c3c3c" d="M-204.27893156013104 -234.66292701723336 L-251.2435640108212 -242.96622741949557 L-255.70324184273164 -217.74166368251426 L-220.9791606209705 -211.6024805880962 L-212.1951219512195 -217.24137931034483 z"/>
<path fill="#3c3c3c" stroke="#3c3c3c" d="M-218.77658483313306 -287.23799160478694 L-204.54545454545453 -270.73170731707313 L-204.54545454545453 -270.73170731707313 L-222.97297297297297 -292.1052631578947 L-222.97297297297297 -292.1052631578947 z"/>
<path fill="#3c3c3c" stroke="#3c3c3c" d="M-204.54545454545453 -270.73170731707313 L-218.77658483313306 -287.23799160478694 L-222.97297297297297 -292.1052631578947 L-222.97297297297297 -292.1052631578947 L-204.54545454545453 -270.73170731707313 z"/>
<path fill="#3c3c3c" stroke="#3c3c3c" d="M-295.45454545454544 -270.73170731707313 L-299.4444444444444 -242.85714285714283 L-299.4444444444444 -242.85714285714283 L-295.45454545454544 -270.73170731707313 z"/>
<path fill="#3c3c3c" stroke="#3c3c3c" d="M-204.54545454545453 -270.73170731707313 L-204.54545454545453 -270.73170731707313 L-200.55555555555554 -242.85714285714283 L-200.55555555555554 -242.85714285714283 L-203.41250574400624 -262.8166060887658 z"/>
<path fill="#3c3c3c" stroke="#3c3c3c" d="M-200.55555555555554 -242.85714285714283 L-200.55555555555554 -242.85714285714283 L-204.54545454545453 -270.73170731707313 L-204.54545454545453 -270.73170731707313 L-203.41250574400624 -262.8166060887658 z"/>
<path fill="#3c3c3c" stroke="#3c3c3c" d="M-235.9375 -202 L-264.0625 -202 L-264.0625 -202 L-235.9375 -202 L-235.9375 -202 L-254.21052631578945 -202 L-254.21052631578945 -202 L-235.9375 -202 z"/>
<path fill="#3c3c3c" stroke="#3c3c3c" d="M-287.80487804878044 -217.24137931034483 L-264.0625 -202 L-264.0625 -202 L-287.80487804878044 -217.24137931034483 z"/>
<path fill="#3c3c3c" stroke="#3c3c3c" d="M-299.4444444444444 -242.85714285714283 L-287.80487804878044 -217.24137931034483 L-287.80487804878044 -217.24137931034483 L-299.4444444444444 -242.85714285714283 z"/>
<path fill="#3c3c3c" stroke="#3c3c3c" d="M-277.027027027027 -292.1052631578947 L-295.45454545454544 -270.73170731707313 L-295.45454545454544 -270.73170731707313 L-277.027027027027 -292.1052631578947 z"/>
<path fill="#3c3c3c" stroke="#3c3c3c" d="M-250 -300 L-277.027027027027 -292.1052631578947 L-277.027027027027 -292.1052631578947 L-250 -300 z"/>
<path fill="#3c3c3c" stroke="#3c3c3c" d="M-250 -300 L-277.027027027027 -292.1052631578947 L-295.45454545454544 -270.73170731707313 L-299.4444444444444 -242.85714285714283 L-287.80487804878044 -217.24137931034483 L-264.0625 -202 L-235.9375 -202 L-212.1951219512195 -217.24137931034483 L-200.55555555555554 -242.85714285714283 L-204.54545454545453 -270.73170731707313 L-222.97297297297297 -292.1052631578947 z"/>
<path fill="#3c3c3c" stroke="#3c3c3c" d="M-246.3906312856653 -270.41509602634204 L-251.2435640108212 -242.96622741949557 L-204.27893156013104 -234.66292701723336 L-200.55555555555554 -242.85714285714283 L-203.41250574400624 -262.8166060887658 z"/>
<path fill="#3c3c3c" stroke="#3c3c3c" d="M-203.41250574400624 -262.8166060887658 L-200.55555555555554 -242.85714285714283 L-204.27893156013104 -234.66292701723336 L-251.2435640108212 -242.96622741949557 L-246.3906312856653 -270.41509602634204 z"/>
<path fill="#3c3c3c" stroke="#3c3c3c" d="M-222.97297297297297 -292.1052631578947 L-204.54545454545453 -270.73170731707313 L-200.55555555555554 -242.85714285714283 L-212.1951219512195 -217.24137931034483 L-235.9375 -202 L-264.0625 -202 L-287.80487804878044 -217.24137931034483 L-299.4444444444444 -242.85714285714283 L-295.45454545454544 -270.73170731707313 L-277.027027027027 -292.1052631578947 L-250 -300 z"/>
<path fill="#3c3c3c" stroke="#3c3c3c" d="M-250 -350 L-290.7407407407407 -341.30434782608694 L-290.7407407407407 -341.30434782608694 L-250 -350 z"/>
<path fill="#3c3c3c" stroke="#3c3c3c" d="M-209.25925925925924 -341.30434782608694 L-250 -350 L-250 -350 L-209.25925925925924 -341.30434782608694 z"/>
<path fill="#3c3c3c" stroke="#3c3c3c" d="M-175.71428571428572 -317.01030927835046 L-209.25925925925924 -341.30434782608694 L-209.25925925925924 -341.30434782608694 L-175.71428571428572 -317.01030927835046 z"/>
<path fill="#3c3c3c" stroke="#3c3c3c" d="M-154.8780487804878 -280.9523809523809 L-175.71428571428572 -317.01030927835046 L-175.71428571428572 -317.01030927835046 L-154.8780487804878 -280.9523809523809 z"/>
<path fill="#3c3c3c" stroke="#3c3c3c" d="M-150.64516129032256 -239.4736842105263 L-154.8780487804878 -280.9523809523809 L-154.8780487804878 -280.9523809523809 L-150.64516129032256 -239.4736842105263 z"/>
<path fill="#3c3c3c" stroke="#3c3c3c" d="M-163.33333333333331 -200 L-150.64516129032256 -239.4736842105263 L-150.64516129032256 -239.4736842105263 L-163.33333333333331 -200 z"/>
<path fill="#3c3c3c" stroke="#3c3c3c" d="M-191.17647058823528 -169.04761904761904 L-163.33333333333331 -200 L-163.33333333333331 -200 L-191.17647058823528 -169.04761904761904 z"/>
<path fill="#3c3c3c" stroke="#3c3c3c" d="M-229.16666666666666 -152.27272727272728 L-191.17647058823528 -169.04761904761904 L-191.17647058823528 -169.04761904761904 L-229.16666666666666 -152.27272727272728 z"/>
<path fill="#3c3c3c" stroke="#3c3c3c" d="M-270.8333333333333 -152.27272727272728 L-229.16666666666666 -152.27272727272728 L-229.16666666666666 -152.27272727272728 L-270.8333333333333 -152.27272727272728 z"/>
<path fill="#3c3c3c" stroke="#3c3c3c" d="M-349.3548387096774 -239.4736842105263 L-336.66666666666663 -200 L-336.66666666666663 -200 L-349.3548387096774 -239.4736842105263 z"/>
<path fill="#3c3c3c" stroke="#3c3c3c" d="M-308.8235294117647 -169.04761904761904 L-270.8333333333333 -152.27272727272728 L-270.8333333333333 -152.27272727272728 L-308.8235294117647 -169.04761904761904 z"/>
<path fill="#3c3c3c" stroke="#3c3c3c" d="M-336.66666666666663 -200 L-308.8235294117647 -169.04761904761904 L-308.8235294117647 -169.04761904761904 L-336.66666666666663 -200 z"/>
<path fill="#3c3c3c" stroke="#3c3c3c" d="M-290.7407407407407 -341.30434782608694 L-324.2857142857142 -317.01030927835046 L-324.2857142857142 -317.01030927835046 L-290.7407407407407 -341.30434782608694 z"/>
<path fill="#3c3c3c" stroke="#3c3c3c" d="M-345.12195121951214 -280.9523809523809 L-349.3548387096774 -239.4736842105263 L-349.3548387096774 -239.4736842105263 L-345.12195121951214 -280.9523809523809 z"/>
<path fill="#3c3c3c" stroke="#3c3c3c" d="M-324.2857142857142 -317.01030927835046 L-345.12195121951214 -280.9523809523809 L-345.12195121951214 -280.9523809523809 L-324.2857142857142 -317.01030927835046 z"/>
<path fill="#3c3c3c" stroke="#3c3c3c" d="M-250 -350 L-290.7407407407407 -341.30434782608694 L-324.2857142857142 -317.01030927835046 L-345.12195121951214 -280.9523809523809 L-349.3548387096774 -239.4736842105263 L-336.66666666666663 -200 L-308.8235294117647 -169.04761904761904 L-270.8333333333333 -152.27272727272728 L-229.16666666666666 -152.27272727272728 L-191.17647058823528 -169.04761904761904 L-163.33333333333331 -200 L-150.64516129032256 -239.4736842105263 L-154.8780487804878 -280.9523809523809 L-175.71428571428572 -317.01030927835046 L-209.25925925925924 -341.30434782608694 z"/>
<path fill="#3c3c3c" stroke="#3c3c3c" d="M-290.7407407407407 -341.30434782608694 L-250 -350 L-209.25925925925924 -341.30434782608694 L-175.71428571428572 -317.01030927835046 L-154.8780487804878 -280.9523809523809 L-150.64516129032256 -239.4736842105263 L-163.33333333333331 -200 L-191.17647058823528 -169.04761904761904 L-229.16666666666666 -152.27272727272728 L-270.8333333333333 -152.27272727272728 L-308.8235294117647 -169.04761904761904 L-336.66666666666663 -200 L-349.3548387096774 -239.4736842105263 L-345.12195121951214 -280.9523809523809 L-324.2857142857142 -317.01030927835046 z"/>
<path fill="#3c3c3c" stroke="#3c3c3c" d="M-242.66951740989614 -291.4622383692891 L-241.29505192425165 -299.2364080635308 L201.83262064752594 -220.89187538179596 L200.45815516188148 -213.11770568755423 z"/>
<path fill="#3c3c3c" stroke="#3c3c3c" d="M-246.3906312856653 -270.41509602634204 L-242.66951740989614 -291.4622383692891 L200.45815516188148 -213.11770568755423 L196.7370412861123 -192.07056334460717 z"/>
<path fill="#3c3c3c" stroke="#3c3c3c" d="M-246.3906312856653 -270.41509602634204 L-251.2435640108212 -242.96622741949557 L191.88410856095643 -164.6216947377607 L196.7370412861123 -192.07056334460717 z"/>
<path fill="#3c3c3c" stroke="#3c3c3c" d="M-251.2435640108212 -242.96622741949557 L-246.3906312856653 -270.41509602634204 L196.7370412861123 -192.07056334460717 L191.88410856095643 -164.6216947377607 z"/>
<path fill="#3c3c3c" stroke="#3c3c3c" d="M-258.35675015271835 -202.73304825901036 L-258.35675015271835 -202.73304825901036 L184.77092241905925 -124.3885155772755 L184.77092241905925 -124.3885155772755 z"/>
<path fill="#3c3c3c" stroke="#3c3c3c" d="M-258.35675015271835 -202.73304825901036 L-255.70324184273164 -217.74166368251426 L187.42443072904598 -139.39713100077938 L184.77092241905925 -124.3885155772755 z"/>
<path fill="#3c3c3c" stroke="#3c3c3c" d="M-255.70324184273164 -217.74166368251426 L-251.2435640108212 -242.96622741949557 L191.88410856095643 -164.6216947377607 L187.42443072904598 -139.39713100077938 z"/>
<path fill="#3c3c3c" stroke="#3c3c3c" d="M-255.70324184273164 -217.74166368251426 L-258.35675015271835 -202.73304825901036 L184.77092241905925 -124.3885155772755 L187.42443072904598 -139.39713100077938 z"/>
<path fill="#3c3c3c" stroke="#3c3c3c" d="M-251.2435640108212 -242.96622741949557 L-255.70324184273164 -217.74166368251426 L187.42443072904598 -139.39713100077938 L191.88410856095643 -164.6216947377607 z"/>
<path fill="#3c3c3c" stroke="#3c3c3c" d="M-242.66951740989614 -291.4622383692891 L-246.3906312856653 -270.41509602634204 L196.7370412861123 -192.07056334460717 L200.45815516188148 -213.11770568755423 z"/>
<path fill="#3c3c3c" stroke="#3c3c3c" d="M-241.29505192425165 -299.2364080635308 L-242.66951740989614 -291.4622383692891 L200.45815516188148 -213.11770568755423 L201.83262064752594 -220.89187538179596 z"/>
<path fill="#3c3c3c" stroke="#3c3c3c" d="M196.7370412861123 -192.07056334460717 L200.45815516188148 -213.11770568755423 L201.83262064752594 -220.89187538179596 L200.45815516188148 -213.11770568755423 L196.7370412861123 -192.07056334460717 L191.88410856095643 -164.6216947377607 L187.42443072904598 -139.39713100077938 L184.77092241905925 -124.3885155772755 L184.77092241905925 -124.3885155772755 L187.42443072904598 -139.39713100077938 L191.88410856095643 -164.6216947377607 z"/>
<path fill="#3c3c3c" stroke="#3c3c3c" d="M-242.66951740989614 -291.4622383692891 L-246.3906312856653 -270.41509602634204 L-251.2435640108212 -242.96622741949557 L-255.70324184273164 -217.74166368251426 L-258.35675015271835 -202.73304825901036 L-258.35675015271835 -202.73304825901036 L-255.70324184273164 -217.74166368251426 L-251.2435640108212 -242.96622741949557 L-246.3906312856653 -270.41509602634204 L-242.66951740989614 -291.4622383692891 L-241.29505192425165 -299.2364080635308 z"/>
</svg>