<?xml version="1.0" encoding="UTF-8"?>
<!-- Generated by jsxcad -->
<!DOCTYPE svg PUBLIC "-//W3C//DTD SVG 1.1 Tiny//EN" "http://www.w3.org/Graphics/SVG/1.1/DTD/svg11-tiny.dtd">
<svg baseProfile="tiny" height="1156.7086949402362mm" width="1100.0000000000023mm" viewBox="-550.0000000000011 -578.3543474701181 1100.0000000000023 1156.7086949402362" version="1.1" stroke="black" stroke-width=".1" fill="none" xmlns="http://www.w3.org/2000/svg">
<path fill="#c4d3ac" stroke="#c4d3ac" d="M-204.54545454545453 -270.73170731707313 L-222.97297297297297 -292.1052631578947 L-222.97297297297297 -292.1052631578947 L-204.54545454545453 -270.73170731707313 z"/>
<path fill="#c4d3ac" stroke="#c4d3ac" d="M-200.55555555555554 -242.85714285714283 L-200.55555555555554 -242.85714285714283 L-204.54545454545453 -270.73170731707313 L-204.54545454545453 -270.73170731707313 z"/>
<path fill="#c4d3ac" stroke="#c4d3ac" d="M-264.0625 -202 L-264.0625 -202 L-235.9375 -202 L-235.9375 -202 z"/>
<path fill="#c4d3ac" stroke="#c4d3ac" d="M-222.97297297297297 -292.1052631578947 L-250 -300 L-250 -300 L-222.97297297297297 -292.1052631578947 z"/>
<path fill="#c4d3ac" stroke="#c4d3ac" d="M-250 -300 L-250 -300 L-277.027027027027 -292.1052631578947 L-277.027027027027 -292.1052631578947 z"/>
<path fill="#c4d3ac" stroke="#c4d3ac" d="M-212.1951219512195 -217.24137931034483 L-212.1951219512195 -217.24137931034483 L-235.9375 -202 L-235.9375 -202 z"/>
<path fill="#c4d3ac" stroke="#c4d3ac" d="M-295.45454545454544 -270.73170731707313 L-295.45454545454544 -270.73170731707313 L-277.027027027027 -292.1052631578947 L-277.027027027027 -292.1052631578947 z"/>
<path fill="#c4d3ac" stroke="#c4d3ac" d="M-264.0625 -202 L-287.80487804878044 -217.24137931034483 L-287.80487804878044 -217.24137931034483 L-264.0625 -202 z"/>
<path fill="#c4d3ac" stroke="#c4d3ac" d="M-299.4444444444444 -242.85714285714283 L-287.80487804878044 -217.24137931034483 L-287.80487804878044 -217.24137931034483 L-299.4444444444444 -242.85714285714283 z"/>
<path fill="#c4d3ac" stroke="#c4d3ac" d="M-295.45454545454544 -270.73170731707313 L-295.45454545454544 -270.73170731707313 L-299.4444444444444 -242.85714285714283 L-299.4444444444444 -242.85714285714283 z"/>
<path fill="#c4d3ac" stroke="#c4d3ac" d="M-200.55555555555554 -242.85714285714283 L-212.1951219512195 -217.24137931034483 L-212.1951219512195 -217.24137931034483 L-200.55555555555554 -242.85714285714283 z"/>
<path fill="#c4d3ac" stroke="#c4d3ac" d="M550 -506.5 L550 507.5 L-549 507.5 L-549 -506.5 z M-212.1951219512195 -217.24137931034483 L-200.55555555555554 -242.85714285714283 L-204.54545454545453 -270.73170731707313 L-222.97297297297297 -292.1052631578947 L-250 -300 L-277.027027027027 -292.1052631578947 L-295.45454545454544 -270.73170731707313 L-299.4444444444444 -242.85714285714283 L-287.80487804878044 -217.24137931034483 L-264.0625 -202 L-235.9375 -202 z"/>
<path fill="#c4d3ac" stroke="#c4d3ac" d="M550 -506.5 L-549 -506.5 L-549 -506.5 L550 -506.5 z"/>
<path fill="#c4d3ac" stroke="#c4d3ac" d="M550 507.5 L550 -506.5 L550 -506.5 L550 507.5 z"/>
<path fill="#c4d3ac" stroke="#c4d3ac" d="M-549 507.5 L550 507.5 L550 507.5 L-549 507.5 z"/>
<path fill="#c4d3ac" stroke="#c4d3ac" d="M-549 -506.5 L-549 507.5 L-549 507.5 L-549 -506.5 z"/>
<path fill="#c4d3ac" stroke="#c4d3ac" d="M-549 -506.5 L-549 507.5 L550 507.5 L550 -506.5 z M-264.0625 -202 L-287.80487804878044 -217.24137931034483 L-299.4444444444444 -242.85714285714283 L-295.45454545454544 -270.73170731707313 L-277.027027027027 -292.1052631578947 L-250 -300 L-222.97297297297297 -292.1052631578947 L-204.54545454545453 -270.73170731707313 L-200.55555555555554 -242.85714285714283 L-212.1951219512195 -217.24137931034483 L-235.9375 -202 z"/>
<path fill="#3c3c3c" stroke="#3c3c3c" d="M-218.77658483313306 -287.23799160478694 L-222.97297297297297 -292.1052631578947 L-241.5941601533697 -297.54460993953694 L-242.66951740989614 -291.4622383692891 z"/>
<path fill="#3c3c3c" stroke="#3c3c3c" d="M-203.41250574400624 -262.8166060887658 L-246.3906312856653 -270.41509602634204 L-242.66951740989614 -291.4622383692891 L-218.77658483313306 -287.23799160478694 L-204.54545454545453 -270.73170731707313 z"/>
<path fill="#3c3c3c" stroke="#3c3c3c" d="M-204.54545454545453 -270.73170731707313 L-218.77658483313306 -287.23799160478694 L-242.66951740989614 -291.4622383692891 L-246.3906312856653 -270.41509602634204 L-203.41250574400624 -262.8166060887658 z"/>
<path fill="#3c3c3c" stroke="#3c3c3c" d="M-218.77658483313306 -287.23799160478694 L-242.66951740989614 -291.4622383692891 L-241.5941601533697 -297.54460993953694 L-222.97297297297297 -292.1052631578947 z"/>
<path fill="#3c3c3c" stroke="#3c3c3c" d="M-254.21052631578945 -202 L-258.35675015271835 -202.73304825901036 L-255.70324184273164 -217.74166368251426 L-220.9791606209705 -211.6024805880962 L-235.9375 -202 z"/>
<path fill="#3c3c3c" stroke="#3c3c3c" d="M-258.35675015271835 -202.73304825901036 L-254.21052631578945 -202 L-254.21052631578945 -202 L-258.35675015271835 -202.73304825901036 z"/>
<path fill="#3c3c3c" stroke="#3c3c3c" d="M-241.5941601533697 -297.54460993953694 L-241.5941601533697 -297.54460993953694 L-242.66951740989614 -291.4622383692891 L-246.3906312856653 -270.41509602634204 L-251.2435640108212 -242.96622741949557 L-255.70324184273164 -217.74166368251426 L-258.35675015271835 -202.73304825901036 L-258.35675015271835 -202.73304825901036 L-255.70324184273164 -217.74166368251426 L-251.2435640108212 -242.96622741949557 L-246.3906312856653 -270.41509602634204 L-242.66951740989614 -291.4622383692891 z"/>
<path fill="#3c3c3c" stroke="#3c3c3c" d="M-235.9375 -202 L-235.9375 -202 L-212.1951219512195 -217.24137931034483 L-212.1951219512195 -217.24137931034483 L-220.9791606209705 -211.6024805880962 z"/>
<path fill="#3c3c3c" stroke="#3c3c3c" d="M-212.1951219512195 -217.24137931034483 L-212.1951219512195 -217.24137931034483 L-235.9375 -202 L-235.9375 -202 L-220.9791606209705 -211.6024805880962 z"/>
<path fill="#3c3c3c" stroke="#3c3c3c" d="M-220.9791606209705 -211.6024805880962 L-255.70324184273164 -217.74166368251426 L-258.35675015271835 -202.73304825901036 L-254.21052631578945 -202 L-235.9375 -202 z"/>
<path fill="#3c3c3c" stroke="#3c3c3c" d="M-212.1951219512195 -217.24137931034483 L-212.1951219512195 -217.24137931034483 L-200.55555555555554 -242.85714285714283 L-200.55555555555554 -242.85714285714283 L-204.27893156013104 -234.66292701723336 z"/>
<path fill="#3c3c3c" stroke="#3c3c3c" d="M-204.27893156013104 -234.66292701723336 L-200.55555555555554 -242.85714285714283 L-200.55555555555554 -242.85714285714283 L-212.1951219512195 -217.24137931034483 L-212.1951219512195 -217.24137931034483 z"/>
<path fill="#3c3c3c" stroke="#3c3c3c" d="M-241.5941601533697 -297.54460993953694 L-241.5941601533697 -297.54460993953694 L-222.97297297297297 -292.1052631578947 L-222.97297297297297 -292.1052631578947 L-250 -300 L-250 -300 L-222.97297297297297 -292.1052631578947 L-222.97297297297297 -292.1052631578947 z"/>
<path fill="#3c3c3c" stroke="#3c3c3c" d="M-222.97297297297297 -292.1052631578947 L-222.97297297297297 -292.1052631578947 L-204.54545454545453 -270.73170731707313 L-204.54545454545453 -270.73170731707313 L-218.77658483313306 -287.23799160478694 z"/>
<path fill="#3c3c3c" stroke="#3c3c3c" d="M-218.77658483313306 -287.23799160478694 L-204.54545454545453 -270.73170731707313 L-204.54545454545453 -270.73170731707313 L-222.97297297297297 -292.1052631578947 L-222.97297297297297 -292.1052631578947 z"/>
<path fill="#3c3c3c" stroke="#3c3c3c" d="M-295.45454545454544 -270.73170731707313 L-299.4444444444444 -242.85714285714283 L-299.4444444444444 -242.85714285714283 L-295.45454545454544 -270.73170731707313 z"/>
<path fill="#3c3c3c" stroke="#3c3c3c" d="M-204.27893156013104 -234.66292701723336 L-251.2435640108212 -242.96622741949557 L-255.70324184273164 -217.74166368251426 L-220.9791606209705 -211.6024805880962 L-212.1951219512195 -217.24137931034483 z"/>
<path fill="#3c3c3c" stroke="#3c3c3c" d="M-200.55555555555554 -242.85714285714283 L-204.54545454545453 -270.73170731707313 L-204.54545454545453 -270.73170731707313 L-203.41250574400624 -262.8166060887658 L-200.55555555555554 -242.85714285714283 z"/>
<path fill="#3c3c3c" stroke="#3c3c3c" d="M-204.54545454545453 -270.73170731707313 L-204.54545454545453 -270.73170731707313 L-200.55555555555554 -242.85714285714283 L-200.55555555555554 -242.85714285714283 L-203.41250574400624 -262.8166060887658 z"/>
<path fill="#3c3c3c" stroke="#3c3c3c" d="M-254.21052631578945 -202 L-254.21052631578945 -202 L-235.9375 -202 L-235.9375 -202 L-264.0625 -202 L-264.0625 -202 L-235.9375 -202 L-235.9375 -202 z"/>
<path fill="#3c3c3c" stroke="#3c3c3c" d="M-204.27893156013104 -234.66292701723336 L-212.1951219512195 -217.24137931034483 L-220.9791606209705 -211.6024805880962 L-255.70324184273164 -217.74166368251426 L-251.2435640108212 -242.96622741949557 z"/>
<path fill="#3c3c3c" stroke="#3c3c3c" d="M-287.80487804878044 -217.24137931034483 L-264.0625 -202 L-264.0625 -202 L-287.80487804878044 -217.24137931034483 z"/>
<path fill="#3c3c3c" stroke="#3c3c3c" d="M-299.4444444444444 -242.85714285714283 L-287.80487804878044 -217.24137931034483 L-287.80487804878044 -217.24137931034483 L-299.4444444444444 -242.85714285714283 z"/>
<path fill="#3c3c3c" stroke="#3c3c3c" d="M-277.027027027027 -292.1052631578947 L-295.45454545454544 -270.73170731707313 L-295.45454545454544 -270.73170731707313 L-277.027027027027 -292.1052631578947 z"/>
<path fill="#3c3c3c" stroke="#3c3c3c" d="M-250 -300 L-277.027027027027 -292.1052631578947 L-277.027027027027 -292.1052631578947 L-250 -300 z"/>
<path fill="#3c3c3c" stroke="#3c3c3c" d="M-250 -300 L-277.027027027027 -292.1052631578947 L-295.45454545454544 -270.73170731707313 L-299.4444444444444 -242.85714285714283 L-287.80487804878044 -217.24137931034483 L-264.0625 -202 L-235.9375 -202 L-212.1951219512195 -217.24137931034483 L-200.55555555555554 -242.85714285714283 L-204.54545454545453 -270.73170731707313 L-222.97297297297297 -292.1052631578947 z"/>
<path fill="#3c3c3c" stroke="#3c3c3c" d="M-200.55555555555554 -242.85714285714283 L-203.41250574400624 -262.8166060887658 L-246.3906312856653 -270.41509602634204 L-251.2435640108212 -242.96622741949557 L-204.27893156013104 -234.66292701723336 z"/>
<path fill="#3c3c3c" stroke="#3c3c3c" d="M-200.55555555555554 -242.85714285714283 L-204.27893156013104 -234.66292701723336 L-251.2435640108212 -242.96622741949557 L-246.3906312856653 -270.41509602634204 L-203.41250574400624 -262.8166060887658 z"/>
<path fill="#3c3c3c" stroke="#3c3c3c" d="M-222.97297297297297 -292.1052631578947 L-204.54545454545453 -270.73170731707313 L-200.55555555555554 -242.85714285714283 L-212.1951219512195 -217.24137931034483 L-235.9375 -202 L-264.0625 -202 L-287.80487804878044 -217.24137931034483 L-299.4444444444444 -242.85714285714283 L-295.45454545454544 -270.73170731707313 L-277.027027027027 -292.1052631578947 L-250 -300 z"/>
<path fill="#3c3c3c" stroke="#3c3c3c" d="M-250 -350 L-290.7407407407407 -341.30434782608694 L-290.7407407407407 -341.30434782608694 L-250 -350 z"/>
<path fill="#3c3c3c" stroke="#3c3c3c" d="M-209.25925925925924 -341.30434782608694 L-250 -350 L-250 -350 L-209.25925925925924 -341.30434782608694 z"/>
<path fill="#3c3c3c" stroke="#3c3c3c" d="M-175.71428571428572 -317.01030927835046 L-209.25925925925924 -341.30434782608694 L-209.25925925925924 -341.30434782608694 L-175.71428571428572 -317.01030927835046 z"/>
<path fill="#3c3c3c" stroke="#3c3c3c" d="M-154.8780487804878 -280.9523809523809 L-175.71428571428572 -317.01030927835046 L-175.71428571428572 -317.01030927835046 L-154.8780487804878 -280.9523809523809 z"/>
<path fill="#3c3c3c" stroke="#3c3c3c" d="M-150.64516129032256 -239.4736842105263 L-154.8780487804878 -280.9523809523809 L-154.8780487804878 -280.9523809523809 L-150.64516129032256 -239.4736842105263 z"/>
<path fill="#3c3c3c" stroke="#3c3c3c" d="M-163.33333333333331 -200 L-150.64516129032256 -239.4736842105263 L-150.64516129032256 -239.4736842105263 L-163.33333333333331 -200 z"/>
<path fill="#3c3c3c" stroke="#3c3c3c" d="M-191.17647058823528 -169.04761904761904 L-163.33333333333331 -200 L-163.33333333333331 -200 L-191.17647058823528 -169.04761904761904 z"/>
<path fill="#3c3c3c" stroke="#3c3c3c" d="M-229.16666666666666 -152.27272727272728 L-191.17647058823528 -169.04761904761904 L-191.17647058823528 -169.04761904761904 L-229.16666666666666 -152.27272727272728 z"/>
<path fill="#3c3c3c" stroke="#3c3c3c" d="M-270.8333333333333 -152.27272727272728 L-229.16666666666666 -152.27272727272728 L-229.16666666666666 -152.27272727272728 L-270.8333333333333 -152.27272727272728 z"/>
<path fill="#3c3c3c" stroke="#3c3c3c" d="M-349.3548387096774 -239.4736842105263 L-336.66666666666663 -200 L-336.66666666666663 -200 L-349.3548387096774 -239.4736842105263 z"/>
<path fill="#3c3c3c" stroke="#3c3c3c" d="M-308.8235294117647 -169.04761904761904 L-270.8333333333333 -152.27272727272728 L-270.8333333333333 -152.27272727272728 L-308.8235294117647 -169.04761904761904 z"/>
<path fill="#3c3c3c" stroke="#3c3c3c" d="M-336.66666666666663 -200 L-308.8235294117647 -169.04761904761904 L-308.8235294117647 -169.04761904761904 L-336.66666666666663 -200 z"/>
<path fill="#3c3c3c" stroke="#3c3c3c" d="M-290.7407407407407 -341.30434782608694 L-324.2857142857142 -317.01030927835046 L-324.2857142857142 -317.01030927835046 L-290.7407407407407 -341.30434782608694 z"/>
<path fill="#3c3c3c" stroke="#3c3c3c" d="M-345.12195121951214 -280.9523809523809 L-349.3548387096774 -239.4736842105263 L-349.3548387096774 -239.4736842105263 L-345.12195121951214 -280.9523809523809 z"/>
<path fill="#3c3c3c" stroke="#3c3c3c" d="M-324.2857142857142 -317.01030927835046 L-345.12195121951214 -280.9523809523809 L-345.12195121951214 -280.9523809523809 L-324.2857142857142 -317.01030927835046 z"/>
<path fill="#3c3c3c" stroke="#3c3c3c" d="M-250 -350 L-290.7407407407407 -341.30434782608694 L-324.2857142857142 -317.01030927835046 L-345.12195121951214 -280.9523809523809 L-349.3548387096774 -239.4736842105263 L-336.66666666666663 -200 L-308.8235294117647 -169.04761904761904 L-270.8333333333333 -152.27272727272728 L-229.16666666666666 -152.27272727272728 L-191.17647058823528 -169.04761904761904 L-163.33333333333331 -200 L-150.64516129032256 -239.4736842105263 L-154.8780487804878 -280.9523809523809 L-175.71428571428572 -317.01030927835046 L-209.25925925925924 -341.30434782608694 z"/>
<path fill="#3c3c3c" stroke="#3c3c3c" d="M-290.7407407407407 -341.30434782608694 L-250 -350 L-209.25925925925924 -341.30434782608694 L-175.71428571428572 -317.01030927835046 L-154.8780487804878 -280.9523809523809 L-150.64516129032256 -239.4736842105263 L-163.33333333333331 -200 L-191.17647058823528 -169.04761904761904 L-229.16666666666666 -152.27272727272728 L-270.8333333333333 -152.27272727272728 L-308.8235294117647 -169.04761904761904 L-336.66666666666663 -200 L-349.3548387096774 -239.4736842105263 L-345.12195121951214 -280.9523809523809 L-324.2857142857142 -317.01030927835046 z"/>
<path fill="#3c3c3c" stroke="#3c3c3c" d="M-242.66951740989614 -291.4622383692891 L-241.29505192425165 -299.2364080635308 L201.83262064752594 -220.89187538179596 L200.45815516188148 -213.11770568755423 z"/>
<path fill="#3c3c3c" stroke="#3c3c3c" d="M-246.3906312856653 -270.41509602634204 L-242.66951740989614 -291.4622383692891 L200.45815516188148 -213.11770568755423 L196.7370412861123 -192.07056334460717 z"/>
<path fill="#3c3c3c" stroke="#3c3c3c" d="M-246.3906312856653 -270.41509602634204 L-251.2435640108212 -242.96622741949557 L191.88410856095643 -164.6216947377607 L196.7370412861123 -192.07056334460717 z"/>
<path fill="#3c3c3c" stroke="#3c3c3c" d="M-251.2435640108212 -242.96622741949557 L-246.3906312856653 -270.41509602634204 L196.7370412861123 -192.07056334460717 L191.88410856095643 -164.6216947377607 z"/>
<path fill="#3c3c3c" stroke="#3c3c3c" d="M-258.35675015271835 -202.73304825901036 L-258.35675015271835 -202.73304825901036 L184.77092241905925 -124.3885155772755 L184.77092241905925 -124.3885155772755 z"/>
<path fill="#3c3c3c" stroke="#3c3c3c" d="M-258.35675015271835 -202.73304825901036 L-255.70324184273164 -217.74166368251426 L187.42443072904598 -139.39713100077938 L184.77092241905925 -124.3885155772755 z"/>
<path fill="#3c3c3c" stroke="#3c3c3c" d="M-255.70324184273164 -217.74166368251426 L-251.2435640108212 -242.96622741949557 L191.88410856095643 -164.6216947377607 L187.42443072904598 -139.39713100077938 z"/>
<path fill="#3c3c3c" stroke="#3c3c3c" d="M-255.70324184273164 -217.74166368251426 L-258.35675015271835 -202.73304825901036 L184.77092241905925 -124.3885155772755 L187.42443072904598 -139.39713100077938 z"/>
<path fill="#3c3c3c" stroke="#3c3c3c" d="M-251.2435640108212 -242.96622741949557 L-255.70324184273164 -217.74166368251426 L187.42443072904598 -139.39713100077938 L191.88410856095643 -164.6216947377607 z"/>
<path fill="#3c3c3c" stroke="#3c3c3c" d="M-242.66951740989614 -291.4622383692891 L-246.3906312856653 -270.41509602634204 L196.7370412861123 -192.07056334460717 L200.45815516188148 -213.11770568755423 z"/>
<path fill="#3c3c3c" stroke="#3c3c3c" d="M-241.29505192425165 -299.2364080635308 L-242.66951740989614 -291.4622383692891 L200.45815516188148 -213.11770568755423 L201.83262064752594 -220.89187538179596 z"/>
<path fill="#3c3c3c" stroke="#3c3c3c" d="M196.7370412861123 -192.07056334460717 L200.45815516188148 -213.11770568755423 L201.83262064752594 -220.89187538179596 L200.45815516188148 -213.11770568755423 L196.7370412861123 -192.07056334460717 L191.88410856095643 -164.6216947377607 L187.42443072904598 -139.39713100077938 L184.77092241905925 -124.3885155772755 L184.77092241905925 -124.3885155772755 L187.42443072904598 -139.39713100077938 L191.88410856095643 -164.6216947377607 z"/>
<path fill="#3c3c3c" stroke="#3c3c3c" d="M-242.66951740989614 -291.4622383692891 L-246.3906312856653 -270.41509602634204 L-251.2435640108212 -242.96622741949557 L-255.70324184273164 -217.74166368251426 L-258.35675015271835 -202.73304825901036 L-258.35675015271835 -202.73304825901036 L-255.70324184273164 -217.74166368251426 L-251.2435640108212 -242.96622741949557 L-246.3906312856653 -270.41509602634204 L-242.66951740989614 -291.4622383692891 L-241.29505192425165 -299.2364080635308 z"/>
<path fill="#3c3c3c" stroke="#3c3c3c" d="M-458.18405410944865 -350 L-459.097897026831 -349.0848440899202 L-460.0143678160919 -350 z"/>
<path fill="#3c3c3c" stroke="#3c3c3c" d="M-413.1048387096774 -324.7330367074527 L-423.89245947273616 -313.9299164892746 L-427.00253807106594 -317.0355329949238 L-417.5 -326.551724137931 z"/>
<path fill="#3c3c3c" stroke="#3c3c3c" d="M-460.0143678160919 -350 L-459.097897026831 -349.0848440899202 L-440.90210297316895 -330.91515591007976 L-427.00253807106594 -317.0355329949238 L-423.89245947273616 -313.9299164892746 L-432.9414430746918 -322.9659173313995 L-450 -340 L-460.0143678160919 -350 z"/>
<path fill="#3c3c3c" stroke="#3c3c3c" d="M-425.8928571428571 -330.0246305418719 L-432.9414430746918 -322.9659173313995 L-423.89245947273616 -313.9299164892746 L-413.1048387096774 -324.7330367074527 z"/>
<path fill="#3c3c3c" stroke="#3c3c3c" d="M-425.8928571428571 -330.0246305418719 L-450 -340 L-432.9414430746918 -322.9659173313995 z"/>
<path fill="#3c3c3c" stroke="#3c3c3c" d="M-417.5 -326.551724137931 L-427.00253807106594 -317.0355329949238 L-440.90210297316895 -330.91515591007976 L-437.1428571428571 -334.679802955665 z"/>
<path fill="#3c3c3c" stroke="#3c3c3c" d="M-425.8928571428571 550 L-425.8928571428571 -330.0246305418719 L-413.1048387096774 -324.7330367074527 L-413.1048387096774 550 z"/>
<path fill="#3c3c3c" stroke="#3c3c3c" d="M-450 -340 L-450 -350 L-445.8620689655172 -350 z"/>
<path fill="#3c3c3c" stroke="#3c3c3c" d="M-425.8928571428571 -330.0246305418719 L-425.8928571428571 550 L-450 550 L-450 -340 z"/>
<path fill="#3c3c3c" stroke="#3c3c3c" d="M-445.8620689655172 -350 L-460.0143678160919 -350 L-450 -340 z"/>
<path fill="#3c3c3c" stroke="#3c3c3c" d="M-417.5 -326.551724137931 L-417.5 550 L-413.1048387096774 550 L-413.1048387096774 -324.7330367074527 z"/>
<path fill="#3c3c3c" stroke="#3c3c3c" d="M-417.5 -326.551724137931 L-437.1428571428571 -334.679802955665 L-437.1428571428571 550 L-417.5 550 z"/>
<path fill="#3c3c3c" stroke="#3c3c3c" d="M-482.49999999999994 -350 L-482.49999999999994 550 L-462.85714285714283 550 L-462.85714285714283 -350 z"/>
<path fill="#3c3c3c" stroke="#3c3c3c" d="M-486.89516129032256 -350 L-486.89516129032256 550 L-482.49999999999994 550 L-482.49999999999994 -350 z"/>
<path fill="#3c3c3c" stroke="#3c3c3c" d="M-440.90210297316895 -330.91515591007976 L-459.097897026831 -349.0848440899202 L-458.18405410944865 -350 L-462.85714285714283 -350 L-462.85714285714283 550 L-437.1428571428571 550 L-437.1428571428571 -334.679802955665 z"/>
<path fill="#3c3c3c" stroke="#3c3c3c" d="M-474.10714285714283 -350 L-474.10714285714283 550 L-486.89516129032256 550 L-486.89516129032256 -350 z"/>
<path fill="#3c3c3c" stroke="#3c3c3c" d="M-450 -340 L-450 550 L-474.10714285714283 550 L-474.10714285714283 -350 L-450 -350 z"/>
<path fill="#3c3c3c" stroke="#3c3c3c" d="M-462.85714285714283 -350 L-458.18405410944865 -350 L-460.0143678160919 -350 L-460.0143678160919 -350 L-445.8620689655172 -350 L-450 -350 L-474.10714285714283 -350 L-486.89516129032256 -350 L-482.49999999999994 -350 z"/>
<path fill="#3c3c3c" stroke="#3c3c3c" d="M-425.8928571428571 550 L-413.1048387096774 550 L-417.5 550 L-437.1428571428571 550 L-462.85714285714283 550 L-482.49999999999994 550 L-486.89516129032256 550 L-474.10714285714283 550 L-450 550 z"/>
<path fill="#3c3c3c" stroke="#3c3c3c" d="M-220.96174764321972 -535.2501812907904 L-432.9414430746918 -322.9659173313995 L-450 -340 L-238.0203045685279 -552.2842639593908 z"/>
<path fill="#3c3c3c" stroke="#3c3c3c" d="M-211.91276404126413 -526.2141804486654 L-423.89245947273616 -313.9299164892746 L-432.9414430746918 -322.9659173313995 L-220.96174764321972 -535.2501812907904 z"/>
<path fill="#3c3c3c" stroke="#3c3c3c" d="M-215.0228426395939 -529.3197969543147 L-427.00253807106594 -317.0355329949238 L-423.89245947273616 -313.9299164892746 L-211.91276404126413 -526.2141804486654 z"/>
<path fill="#3c3c3c" stroke="#3c3c3c" d="M-228.92240754169686 -543.1994198694706 L-440.90210297316895 -330.91515591007976 L-427.00253807106594 -317.0355329949238 L-215.0228426395939 -529.3197969543147 z"/>
<path fill="#3c3c3c" stroke="#3c3c3c" d="M-261.0177664974619 -575.248730964467 L-472.997461928934 -362.96446700507613 L-459.097897026831 -349.0848440899202 L-247.11820159535895 -561.3691080493111 z"/>
<path fill="#3c3c3c" stroke="#3c3c3c" d="M-264.12784509579166 -578.3543474701162 L-476.1075405272638 -366.07008351072534 L-472.997461928934 -362.96446700507613 L-261.0177664974619 -575.248730964467 z"/>
<path fill="#3c3c3c" stroke="#3c3c3c" d="M-247.11820159535895 -561.3691080493111 L-459.097897026831 -349.0848440899202 L-440.90210297316895 -330.91515591007976 L-228.92240754169686 -543.1994198694706 z"/>
<path fill="#3c3c3c" stroke="#3c3c3c" d="M-255.0788614938361 -569.3183466279912 L-467.05855692530815 -357.03408266860043 L-476.1075405272638 -366.07008351072534 L-264.12784509579166 -578.3543474701162 z"/>
<path fill="#3c3c3c" stroke="#3c3c3c" d="M-238.0203045685279 -552.2842639593908 L-450 -340 L-467.05855692530815 -357.03408266860043 L-255.0788614938361 -569.3183466279912 z"/>
<path fill="#3c3c3c" stroke="#3c3c3c" d="M-220.96174764321972 -535.2501812907904 L-238.0203045685279 -552.2842639593908 L-255.0788614938361 -569.3183466279912 L-264.12784509579166 -578.3543474701162 L-261.0177664974619 -575.248730964467 L-247.11820159535895 -561.3691080493111 L-228.92240754169686 -543.1994198694706 L-215.0228426395939 -529.3197969543147 L-211.91276404126413 -526.2141804486654 z"/>
<path fill="#3c3c3c" stroke="#3c3c3c" d="M-432.9414430746918 -322.9659173313995 L-423.89245947273616 -313.9299164892746 L-427.00253807106594 -317.0355329949238 L-440.90210297316895 -330.91515591007976 L-459.097897026831 -349.0848440899202 L-472.997461928934 -362.96446700507613 L-476.1075405272638 -366.07008351072534 L-467.05855692530815 -357.03408266860043 L-450 -340 z"/>
</svg>