<?xml version="1.0" encoding="UTF-8"?>
<!-- Generated by jsxcad -->
<!DOCTYPE svg PUBLIC "-//W3C//DTD SVG 1.1 Tiny//EN" "http://www.w3.org/Graphics/SVG/1.1/DTD/svg11-tiny.dtd">
<svg baseProfile="tiny" height="1285.0000000000025mm" width="1343.1500000000024mm" viewBox="-671.5750000000012 -642.5000000000013 1343.1500000000024 1285.0000000000025" version="1.1" stroke="black" stroke-width=".1" fill="none" xmlns="http://www.w3.org/2000/svg">
<path fill="#c4d3ac" stroke="#c4d3ac" d="M-303.05555555555554 -200.35714285714283 L-303.05555555555554 -200.35714285714283 L-314.6951219512195 -174.74137931034483 L-314.6951219512195 -174.74137931034483 z"/>
<path fill="#c4d3ac" stroke="#c4d3ac" d="M-325.47297297297297 -249.6052631578947 L-352.5 -257.5 L-352.5 -257.5 L-325.47297297297297 -249.6052631578947 z"/>
<path fill="#c4d3ac" stroke="#c4d3ac" d="M-303.05555555555554 -200.35714285714283 L-303.05555555555554 -200.35714285714283 L-307.0454545454545 -228.23170731707316 L-307.0454545454545 -228.23170731707316 z"/>
<path fill="#c4d3ac" stroke="#c4d3ac" d="M-366.5625 -159.5 L-338.4375 -159.5 L-338.4375 -159.5 L-366.5625 -159.5 z"/>
<path fill="#c4d3ac" stroke="#c4d3ac" d="M-390.30487804878044 -174.74137931034483 L-390.30487804878044 -174.74137931034483 L-366.5625 -159.5 L-366.5625 -159.5 z"/>
<path fill="#c4d3ac" stroke="#c4d3ac" d="M-651.5 -506.5 L-651.5 507.5 L652.5 507.5 L652.5 -506.5 z M-325.47297297297297 -249.6052631578947 L-307.0454545454545 -228.23170731707316 L-303.05555555555554 -200.35714285714283 L-314.6951219512195 -174.74137931034483 L-338.4375 -159.5 L-366.5625 -159.5 L-390.30487804878044 -174.74137931034483 L-401.9444444444444 -200.35714285714283 L-397.95454545454544 -228.23170731707316 L-379.527027027027 -249.6052631578947 L-352.5 -257.5 z"/>
<path fill="#c4d3ac" stroke="#c4d3ac" d="M-338.4375 -159.5 L-314.6951219512195 -174.74137931034483 L-314.6951219512195 -174.74137931034483 L-338.4375 -159.5 z"/>
<path fill="#c4d3ac" stroke="#c4d3ac" d="M-307.0454545454545 -228.23170731707316 L-307.0454545454545 -228.23170731707316 L-325.47297297297297 -249.6052631578947 L-325.47297297297297 -249.6052631578947 z"/>
<path fill="#c4d3ac" stroke="#c4d3ac" d="M-401.9444444444444 -200.35714285714283 L-401.9444444444444 -200.35714285714283 L-397.95454545454544 -228.23170731707316 L-397.95454545454544 -228.23170731707316 z"/>
<path fill="#c4d3ac" stroke="#c4d3ac" d="M-390.30487804878044 -174.74137931034483 L-401.9444444444444 -200.35714285714283 L-401.9444444444444 -200.35714285714283 L-390.30487804878044 -174.74137931034483 z"/>
<path fill="#c4d3ac" stroke="#c4d3ac" d="M-379.527027027027 -249.6052631578947 L-352.5 -257.5 L-352.5 -257.5 L-379.527027027027 -249.6052631578947 z"/>
<path fill="#c4d3ac" stroke="#c4d3ac" d="M-397.95454545454544 -228.23170731707316 L-397.95454545454544 -228.23170731707316 L-379.527027027027 -249.6052631578947 L-379.527027027027 -249.6052631578947 z"/>
<path fill="#c4d3ac" stroke="#c4d3ac" d="M652.5 -506.5 L652.5 -506.5 L-651.5 -506.5 L-651.5 -506.5 z"/>
<path fill="#c4d3ac" stroke="#c4d3ac" d="M652.5 507.5 L652.5 507.5 L652.5 -506.5 L652.5 -506.5 z"/>
<path fill="#c4d3ac" stroke="#c4d3ac" d="M-651.5 507.5 L652.5 507.5 L652.5 507.5 L-651.5 507.5 z"/>
<path fill="#c4d3ac" stroke="#c4d3ac" d="M-651.5 507.5 L-651.5 -506.5 L652.5 -506.5 L652.5 507.5 z M-303.05555555555554 -200.35714285714283 L-307.0454545454545 -228.23170731707316 L-325.47297297297297 -249.6052631578947 L-352.5 -257.5 L-379.527027027027 -249.6052631578947 L-397.95454545454544 -228.23170731707316 L-401.9444444444444 -200.35714285714283 L-390.30487804878044 -174.74137931034483 L-366.5625 -159.5 L-338.4375 -159.5 L-314.6951219512195 -174.74137931034483 z"/>
<path fill="#c4d3ac" stroke="#c4d3ac" d="M-651.5 -506.5 L-651.5 -506.5 L-651.5 507.5 L-651.5 507.5 z"/>
<path fill="#3c3c3c" stroke="#3c3c3c" d="M-321.27658483313303 -244.73799160478697 L-325.47297297297297 -249.6052631578947 L-344.09416015336967 -255.04460993953694 L-345.1695174098961 -248.9622383692891 z"/>
<path fill="#3c3c3c" stroke="#3c3c3c" d="M-325.47297297297297 -249.6052631578947 L-321.27658483313303 -244.73799160478697 L-345.1695174098961 -248.9622383692891 L-344.09416015336967 -255.04460993953694 z"/>
<path fill="#3c3c3c" stroke="#3c3c3c" d="M-321.27658483313303 -244.73799160478697 L-307.0454545454545 -228.23170731707316 L-305.91250574400624 -220.31660608876584 L-348.8906312856653 -227.91509602634204 L-345.1695174098961 -248.9622383692891 z"/>
<path fill="#3c3c3c" stroke="#3c3c3c" d="M-356.7105263157894 -159.5 L-360.85675015271835 -160.23304825901036 L-358.20324184273164 -175.24166368251426 L-323.4791606209705 -169.1024805880962 L-338.4375 -159.5 z"/>
<path fill="#3c3c3c" stroke="#3c3c3c" d="M-356.7105263157894 -159.5 L-356.7105263157894 -159.5 L-360.85675015271835 -160.23304825901036 L-360.85675015271835 -160.23304825901036 z"/>
<path fill="#3c3c3c" stroke="#3c3c3c" d="M-348.8906312856653 -227.91509602634204 L-305.91250574400624 -220.31660608876584 L-307.0454545454545 -228.23170731707316 L-321.27658483313303 -244.73799160478697 L-345.1695174098961 -248.9622383692891 z"/>
<path fill="#3c3c3c" stroke="#3c3c3c" d="M-344.09416015336967 -255.04460993953694 L-344.09416015336967 -255.04460993953694 L-345.1695174098961 -248.9622383692891 L-348.8906312856653 -227.91509602634204 L-353.74356401082116 -200.46622741949557 L-358.20324184273164 -175.24166368251426 L-360.85675015271835 -160.23304825901036 L-360.85675015271835 -160.23304825901036 L-358.20324184273164 -175.24166368251426 L-353.74356401082116 -200.46622741949557 L-348.8906312856653 -227.91509602634204 L-345.1695174098961 -248.9622383692891 z"/>
<path fill="#3c3c3c" stroke="#3c3c3c" d="M-323.4791606209705 -169.1024805880962 L-314.6951219512195 -174.74137931034483 L-314.6951219512195 -174.74137931034483 L-338.4375 -159.5 L-338.4375 -159.5 z"/>
<path fill="#3c3c3c" stroke="#3c3c3c" d="M-338.4375 -159.5 L-338.4375 -159.5 L-314.6951219512195 -174.74137931034483 L-314.6951219512195 -174.74137931034483 L-323.4791606209705 -169.1024805880962 z"/>
<path fill="#3c3c3c" stroke="#3c3c3c" d="M-323.4791606209705 -169.1024805880962 L-358.20324184273164 -175.24166368251426 L-360.85675015271835 -160.23304825901036 L-356.7105263157894 -159.5 L-338.4375 -159.5 z"/>
<path fill="#3c3c3c" stroke="#3c3c3c" d="M-303.05555555555554 -200.35714285714283 L-303.05555555555554 -200.35714285714283 L-314.6951219512195 -174.74137931034483 L-314.6951219512195 -174.74137931034483 L-306.778931560131 -192.16292701723336 z"/>
<path fill="#3c3c3c" stroke="#3c3c3c" d="M-303.05555555555554 -200.35714285714283 L-306.778931560131 -192.16292701723336 L-314.6951219512195 -174.74137931034483 L-314.6951219512195 -174.74137931034483 L-303.05555555555554 -200.35714285714283 z"/>
<path fill="#3c3c3c" stroke="#3c3c3c" d="M-344.09416015336967 -255.04460993953694 L-344.09416015336967 -255.04460993953694 L-325.47297297297297 -249.6052631578947 L-325.47297297297297 -249.6052631578947 L-352.5 -257.5 L-352.5 -257.5 L-325.47297297297297 -249.6052631578947 L-325.47297297297297 -249.6052631578947 z"/>
<path fill="#3c3c3c" stroke="#3c3c3c" d="M-306.778931560131 -192.16292701723336 L-353.74356401082116 -200.46622741949557 L-358.20324184273164 -175.24166368251426 L-323.4791606209705 -169.1024805880962 L-314.6951219512195 -174.74137931034483 z"/>
<path fill="#3c3c3c" stroke="#3c3c3c" d="M-321.27658483313303 -244.73799160478697 L-307.0454545454545 -228.23170731707316 L-307.0454545454545 -228.23170731707316 L-325.47297297297297 -249.6052631578947 L-325.47297297297297 -249.6052631578947 z"/>
<path fill="#3c3c3c" stroke="#3c3c3c" d="M-321.27658483313303 -244.73799160478697 L-325.47297297297297 -249.6052631578947 L-325.47297297297297 -249.6052631578947 L-307.0454545454545 -228.23170731707316 L-307.0454545454545 -228.23170731707316 z"/>
<path fill="#3c3c3c" stroke="#3c3c3c" d="M-397.95454545454544 -228.23170731707316 L-401.9444444444444 -200.35714285714283 L-401.9444444444444 -200.35714285714283 L-397.95454545454544 -228.23170731707316 z"/>
<path fill="#3c3c3c" stroke="#3c3c3c" d="M-303.05555555555554 -200.35714285714283 L-307.0454545454545 -228.23170731707316 L-307.0454545454545 -228.23170731707316 L-305.91250574400624 -220.31660608876584 L-303.05555555555554 -200.35714285714283 z"/>
<path fill="#3c3c3c" stroke="#3c3c3c" d="M-307.0454545454545 -228.23170731707316 L-307.0454545454545 -228.23170731707316 L-303.05555555555554 -200.35714285714283 L-303.05555555555554 -200.35714285714283 L-305.91250574400624 -220.31660608876584 z"/>
<path fill="#3c3c3c" stroke="#3c3c3c" d="M-338.4375 -159.5 L-366.5625 -159.5 L-366.5625 -159.5 L-338.4375 -159.5 L-338.4375 -159.5 L-356.7105263157894 -159.5 L-356.7105263157894 -159.5 L-338.4375 -159.5 z"/>
<path fill="#3c3c3c" stroke="#3c3c3c" d="M-353.74356401082116 -200.46622741949557 L-306.778931560131 -192.16292701723336 L-314.6951219512195 -174.74137931034483 L-323.4791606209705 -169.1024805880962 L-358.20324184273164 -175.24166368251426 z"/>
<path fill="#3c3c3c" stroke="#3c3c3c" d="M-303.05555555555554 -200.35714285714283 L-305.91250574400624 -220.31660608876584 L-348.8906312856653 -227.91509602634204 L-353.74356401082116 -200.46622741949557 L-306.778931560131 -192.16292701723336 z"/>
<path fill="#3c3c3c" stroke="#3c3c3c" d="M-390.30487804878044 -174.74137931034483 L-366.5625 -159.5 L-366.5625 -159.5 L-390.30487804878044 -174.74137931034483 z"/>
<path fill="#3c3c3c" stroke="#3c3c3c" d="M-401.9444444444444 -200.35714285714283 L-390.30487804878044 -174.74137931034483 L-390.30487804878044 -174.74137931034483 L-401.9444444444444 -200.35714285714283 z"/>
<path fill="#3c3c3c" stroke="#3c3c3c" d="M-379.527027027027 -249.6052631578947 L-397.95454545454544 -228.23170731707316 L-397.95454545454544 -228.23170731707316 L-379.527027027027 -249.6052631578947 z"/>
<path fill="#3c3c3c" stroke="#3c3c3c" d="M-352.5 -257.5 L-379.527027027027 -249.6052631578947 L-379.527027027027 -249.6052631578947 L-352.5 -257.5 z"/>
<path fill="#3c3c3c" stroke="#3c3c3c" d="M-352.5 -257.5 L-379.527027027027 -249.6052631578947 L-397.95454545454544 -228.23170731707316 L-401.9444444444444 -200.35714285714283 L-390.30487804878044 -174.74137931034483 L-366.5625 -159.5 L-338.4375 -159.5 L-314.6951219512195 -174.74137931034483 L-303.05555555555554 -200.35714285714283 L-307.0454545454545 -228.23170731707316 L-325.47297297297297 -249.6052631578947 z"/>
<path fill="#3c3c3c" stroke="#3c3c3c" d="M-305.91250574400624 -220.31660608876584 L-303.05555555555554 -200.35714285714283 L-306.778931560131 -192.16292701723336 L-353.74356401082116 -200.46622741949557 L-348.8906312856653 -227.91509602634204 z"/>
<path fill="#3c3c3c" stroke="#3c3c3c" d="M-325.47297297297297 -249.6052631578947 L-307.0454545454545 -228.23170731707316 L-303.05555555555554 -200.35714285714283 L-314.6951219512195 -174.74137931034483 L-338.4375 -159.5 L-366.5625 -159.5 L-390.30487804878044 -174.74137931034483 L-401.9444444444444 -200.35714285714283 L-397.95454545454544 -228.23170731707316 L-379.527027027027 -249.6052631578947 L-352.5 -257.5 z"/>
<path fill="#3c3c3c" stroke="#3c3c3c" d="M-352.5 -307.5 L-393.2407407407407 -298.80434782608694 L-393.2407407407407 -298.80434782608694 L-352.5 -307.5 z"/>
<path fill="#3c3c3c" stroke="#3c3c3c" d="M-311.75925925925924 -298.80434782608694 L-352.5 -307.5 L-352.5 -307.5 L-311.75925925925924 -298.80434782608694 z"/>
<path fill="#3c3c3c" stroke="#3c3c3c" d="M-278.2142857142857 -274.51030927835046 L-311.75925925925924 -298.80434782608694 L-311.75925925925924 -298.80434782608694 L-278.2142857142857 -274.51030927835046 z"/>
<path fill="#3c3c3c" stroke="#3c3c3c" d="M-257.3780487804878 -238.45238095238093 L-278.2142857142857 -274.51030927835046 L-278.2142857142857 -274.51030927835046 L-257.3780487804878 -238.45238095238093 z"/>
<path fill="#3c3c3c" stroke="#3c3c3c" d="M-253.14516129032256 -196.9736842105263 L-257.3780487804878 -238.45238095238093 L-257.3780487804878 -238.45238095238093 L-253.14516129032256 -196.9736842105263 z"/>
<path fill="#3c3c3c" stroke="#3c3c3c" d="M-265.8333333333333 -157.5 L-253.14516129032256 -196.9736842105263 L-253.14516129032256 -196.9736842105263 L-265.8333333333333 -157.5 z"/>
<path fill="#3c3c3c" stroke="#3c3c3c" d="M-293.67647058823525 -126.54761904761905 L-265.8333333333333 -157.5 L-265.8333333333333 -157.5 L-293.67647058823525 -126.54761904761905 z"/>
<path fill="#3c3c3c" stroke="#3c3c3c" d="M-331.66666666666663 -109.77272727272728 L-293.67647058823525 -126.54761904761905 L-293.67647058823525 -126.54761904761905 L-331.66666666666663 -109.77272727272728 z"/>
<path fill="#3c3c3c" stroke="#3c3c3c" d="M-373.3333333333333 -109.77272727272728 L-331.66666666666663 -109.77272727272728 L-331.66666666666663 -109.77272727272728 L-373.3333333333333 -109.77272727272728 z"/>
<path fill="#3c3c3c" stroke="#3c3c3c" d="M-451.8548387096774 -196.9736842105263 L-439.16666666666663 -157.5 L-439.16666666666663 -157.5 L-451.8548387096774 -196.9736842105263 z"/>
<path fill="#3c3c3c" stroke="#3c3c3c" d="M-411.3235294117647 -126.54761904761905 L-373.3333333333333 -109.77272727272728 L-373.3333333333333 -109.77272727272728 L-411.3235294117647 -126.54761904761905 z"/>
<path fill="#3c3c3c" stroke="#3c3c3c" d="M-439.16666666666663 -157.5 L-411.3235294117647 -126.54761904761905 L-411.3235294117647 -126.54761904761905 L-439.16666666666663 -157.5 z"/>
<path fill="#3c3c3c" stroke="#3c3c3c" d="M-393.2407407407407 -298.80434782608694 L-426.7857142857142 -274.51030927835046 L-426.7857142857142 -274.51030927835046 L-393.2407407407407 -298.80434782608694 z"/>
<path fill="#3c3c3c" stroke="#3c3c3c" d="M-447.62195121951214 -238.45238095238093 L-451.8548387096774 -196.9736842105263 L-451.8548387096774 -196.9736842105263 L-447.62195121951214 -238.45238095238093 z"/>
<path fill="#3c3c3c" stroke="#3c3c3c" d="M-426.7857142857142 -274.51030927835046 L-447.62195121951214 -238.45238095238093 L-447.62195121951214 -238.45238095238093 L-426.7857142857142 -274.51030927835046 z"/>
<path fill="#3c3c3c" stroke="#3c3c3c" d="M-352.5 -307.5 L-393.2407407407407 -298.80434782608694 L-426.7857142857142 -274.51030927835046 L-447.62195121951214 -238.45238095238093 L-451.8548387096774 -196.9736842105263 L-439.16666666666663 -157.5 L-411.3235294117647 -126.54761904761905 L-373.3333333333333 -109.77272727272728 L-331.66666666666663 -109.77272727272728 L-293.67647058823525 -126.54761904761905 L-265.8333333333333 -157.5 L-253.14516129032256 -196.9736842105263 L-257.3780487804878 -238.45238095238093 L-278.2142857142857 -274.51030927835046 L-311.75925925925924 -298.80434782608694 z"/>
<path fill="#3c3c3c" stroke="#3c3c3c" d="M-393.2407407407407 -298.80434782608694 L-352.5 -307.5 L-311.75925925925924 -298.80434782608694 L-278.2142857142857 -274.51030927835046 L-257.3780487804878 -238.45238095238093 L-253.14516129032256 -196.9736842105263 L-265.8333333333333 -157.5 L-293.67647058823525 -126.54761904761905 L-331.66666666666663 -109.77272727272728 L-373.3333333333333 -109.77272727272728 L-411.3235294117647 -126.54761904761905 L-439.16666666666663 -157.5 L-451.8548387096774 -196.9736842105263 L-447.62195121951214 -238.45238095238093 L-426.7857142857142 -274.51030927835046 z"/>
<path fill="#3c3c3c" stroke="#3c3c3c" d="M-19.075 -99.8063740694789 L-19.075 -115.2841271284333 L-358.20324184273164 -175.24166368251426 L-360.85675015271835 -160.23304825901036 z"/>
<path fill="#3c3c3c" stroke="#3c3c3c" d="M19.049999999999997 -108.54366496962436 L19.049999999999997 -93.06591191066997 L82.27092241905925 -81.8885155772755 L84.92443072904598 -96.89713100077938 z"/>
<path fill="#3c3c3c" stroke="#3c3c3c" d="M-19.075 -99.8063740694789 L-360.85675015271835 -160.23304825901036 L-360.85675015271835 -160.23304825901036 L-19.075 -99.8063740694789 z"/>
<path fill="#3c3c3c" stroke="#3c3c3c" d="M19.049999999999997 -93.06591191066997 L19.049999999999997 -93.06591191066997 L82.27092241905925 -81.8885155772755 L82.27092241905925 -81.8885155772755 z"/>
<path fill="#3c3c3c" stroke="#3c3c3c" d="M-19.075 -99.8063740694789 L-360.85675015271835 -160.23304825901036 L-358.20324184273164 -175.24166368251426 L-19.075 -115.2841271284333 z"/>
<path fill="#3c3c3c" stroke="#3c3c3c" d="M19.049999999999997 -93.06591191066997 L19.049999999999997 -108.54366496962436 L84.92443072904598 -96.89713100077938 L82.27092241905925 -81.8885155772755 z"/>
<path fill="#3c3c3c" stroke="#3c3c3c" d="M-19.075 -141.29715747961714 L-19.075 -115.2841271284333 L-19.075 -99.8063740694789 L-19.075 -99.8063740694789 L-19.075 -115.2841271284333 L-19.075 -141.29715747961714 L-19.075 -169.60401977546448 L-19.075 -191.30905135823429 L-19.075 -199.3262251861042 L-19.075 -191.30905135823429 L-19.075 -169.60401977546448 z"/>
<path fill="#3c3c3c" stroke="#3c3c3c" d="M-19.075 -169.60401977546448 L-19.075 -191.30905135823429 L-345.1695174098961 -248.9622383692891 L-348.8906312856653 -227.91509602634204 z"/>
<path fill="#3c3c3c" stroke="#3c3c3c" d="M19.049999999999997 -184.56858919942533 L19.049999999999997 -162.86355761665556 L94.2370412861123 -149.57056334460717 L97.95815516188148 -170.61770568755423 z"/>
<path fill="#3c3c3c" stroke="#3c3c3c" d="M94.2370412861123 -149.57056334460717 L19.049999999999997 -162.86355761665556 L19.049999999999997 -184.56858919942533 L97.95815516188148 -170.61770568755423 z"/>
<path fill="#3c3c3c" stroke="#3c3c3c" d="M-345.1695174098961 -248.9622383692891 L-19.075 -191.30905135823429 L-19.075 -169.60401977546448 L-348.8906312856653 -227.91509602634204 z"/>
<path fill="#3c3c3c" stroke="#3c3c3c" d="M97.95815516188148 -170.61770568755423 L19.049999999999997 -184.56858919942533 L19.049999999999997 -192.58576302729526 L99.33262064752596 -178.39187538179596 z"/>
<path fill="#3c3c3c" stroke="#3c3c3c" d="M-19.075 -191.30905135823429 L-345.1695174098961 -248.9622383692891 L-343.79505192425165 -256.7364080635308 L-19.075 -199.3262251861042 z"/>
<path fill="#3c3c3c" stroke="#3c3c3c" d="M-19.075 -169.60401977546448 L-348.8906312856653 -227.91509602634204 L-353.74356401082116 -200.46622741949557 L-19.075 -141.29715747961714 z"/>
<path fill="#3c3c3c" stroke="#3c3c3c" d="M89.38410856095645 -122.1216947377607 L94.2370412861123 -149.57056334460717 L19.049999999999997 -162.86355761665556 L19.049999999999997 -134.55669532080822 z"/>
<path fill="#3c3c3c" stroke="#3c3c3c" d="M19.049999999999997 -162.86355761665556 L94.2370412861123 -149.57056334460717 L89.38410856095645 -122.1216947377607 L19.049999999999997 -134.55669532080822 z"/>
<path fill="#3c3c3c" stroke="#3c3c3c" d="M-348.8906312856653 -227.91509602634204 L-19.075 -169.60401977546448 L-19.075 -141.29715747961714 L-353.74356401082116 -200.46622741949557 z"/>
<path fill="#3c3c3c" stroke="#3c3c3c" d="M19.049999999999997 -134.55669532080822 L19.049999999999997 -162.86355761665556 L19.049999999999997 -184.56858919942533 L19.049999999999997 -192.58576302729526 L19.049999999999997 -184.56858919942533 L19.049999999999997 -162.86355761665556 L19.049999999999997 -134.55669532080822 L19.049999999999997 -108.54366496962436 L19.049999999999997 -93.06591191066997 L19.049999999999997 -93.06591191066997 L19.049999999999997 -108.54366496962436 z"/>
<path fill="#3c3c3c" stroke="#3c3c3c" d="M19.049999999999997 -134.55669532080822 L89.38410856095645 -122.1216947377607 L84.92443072904598 -96.89713100077938 L19.049999999999997 -108.54366496962436 z"/>
<path fill="#3c3c3c" stroke="#3c3c3c" d="M-19.075 -115.2841271284333 L-358.20324184273164 -175.24166368251426 L-353.74356401082116 -200.46622741949557 L-19.075 -141.29715747961714 z"/>
<path fill="#3c3c3c" stroke="#3c3c3c" d="M-19.075 -141.29715747961714 L-353.74356401082116 -200.46622741949557 L-358.20324184273164 -175.24166368251426 L-19.075 -115.2841271284333 z"/>
<path fill="#3c3c3c" stroke="#3c3c3c" d="M19.049999999999997 -108.54366496962436 L84.92443072904598 -96.89713100077938 L89.38410856095645 -122.1216947377607 L19.049999999999997 -134.55669532080822 z"/>
<path fill="#3c3c3c" stroke="#3c3c3c" d="M-19.075 -199.3262251861042 L-343.79505192425165 -256.7364080635308 L-345.1695174098961 -248.9622383692891 L-19.075 -191.30905135823429 z"/>
<path fill="#3c3c3c" stroke="#3c3c3c" d="M19.049999999999997 -184.56858919942533 L97.95815516188148 -170.61770568755423 L99.33262064752596 -178.39187538179596 L19.049999999999997 -192.58576302729526 z"/>
<path fill="#3c3c3c" stroke="#3c3c3c" d="M94.2370412861123 -149.57056334460717 L97.95815516188148 -170.61770568755423 L99.33262064752596 -178.39187538179596 L97.95815516188148 -170.61770568755423 L94.2370412861123 -149.57056334460717 L89.38410856095645 -122.1216947377607 L84.92443072904598 -96.89713100077938 L82.27092241905925 -81.8885155772755 L82.27092241905925 -81.8885155772755 L84.92443072904598 -96.89713100077938 L89.38410856095645 -122.1216947377607 z"/>
<path fill="#3c3c3c" stroke="#3c3c3c" d="M-345.1695174098961 -248.9622383692891 L-348.8906312856653 -227.91509602634204 L-353.74356401082116 -200.46622741949557 L-358.20324184273164 -175.24166368251426 L-360.85675015271835 -160.23304825901036 L-360.85675015271835 -160.23304825901036 L-358.20324184273164 -175.24166368251426 L-353.74356401082116 -200.46622741949557 L-348.8906312856653 -227.91509602634204 L-345.1695174098961 -248.9622383692891 L-343.79505192425165 -256.7364080635308 z"/>
<path fill="#3c3c3c" stroke="#3c3c3c" d="M-589.3951612903226 526.5749999999999 L-584.9999999999999 526.5749999999999 L-565.3571428571428 526.5749999999999 L-539.6428571428571 526.5749999999999 L-520 526.5749999999999 L-515.6048387096773 526.5749999999999 L-528.3928571428571 526.5749999999999 L-552.5 526.5749999999999 L-576.6071428571428 526.5749999999999 z"/>
<path fill="#3c3c3c" stroke="#3c3c3c" d="M-561.597897026831 -256.5848440899202 L-562.5143678160919 -257.5 L-560.6840541094487 -257.5 z"/>
<path fill="#3c3c3c" stroke="#3c3c3c" d="M-589.3951612903226 526.5749999999999 L-589.3951612903226 642.5 L-584.9999999999999 642.5 L-584.9999999999999 526.5749999999999 z"/>
<path fill="#3c3c3c" stroke="#3c3c3c" d="M-589.3951612903226 488.45 L-584.9999999999999 488.45 L-584.9999999999999 -257.5 L-589.3951612903226 -257.5 z"/>
<path fill="#3c3c3c" stroke="#3c3c3c" d="M-529.5025380710659 -224.53553299492384 L-520 -234.05172413793102 L-515.6048387096773 -232.23303670745273 L-526.3924594727362 -221.4299164892746 z"/>
<path fill="#3c3c3c" stroke="#3c3c3c" d="M-520 -234.05172413793102 L-520 488.45 L-515.6048387096773 488.45 L-515.6048387096773 -232.23303670745273 z"/>
<path fill="#3c3c3c" stroke="#3c3c3c" d="M-515.6048387096773 642.5 L-515.6048387096773 526.5749999999999 L-520 526.5749999999999 L-520 642.5 z"/>
<path fill="#3c3c3c" stroke="#3c3c3c" d="M-562.5143678160919 -257.5 L-561.597897026831 -256.5848440899202 L-543.4021029731689 -238.41515591007976 L-529.5025380710659 -224.53553299492384 L-526.3924594727362 -221.4299164892746 L-535.4414430746917 -230.46591733139954 L-552.5 -247.5 L-562.5143678160919 -257.5 z"/>
<path fill="#3c3c3c" stroke="#3c3c3c" d="M-528.3928571428571 -237.52463054187191 L-535.4414430746917 -230.46591733139954 L-526.3924594727362 -221.4299164892746 L-515.6048387096773 -232.23303670745273 z"/>
<path fill="#3c3c3c" stroke="#3c3c3c" d="M-565.3571428571428 526.5749999999999 L-584.9999999999999 526.5749999999999 L-584.9999999999999 642.5 L-565.3571428571428 642.5 z"/>
<path fill="#3c3c3c" stroke="#3c3c3c" d="M-584.9999999999999 488.45 L-565.3571428571428 488.45 L-565.3571428571428 -257.5 L-584.9999999999999 -257.5 z"/>
<path fill="#3c3c3c" stroke="#3c3c3c" d="M-528.3928571428571 -237.52463054187191 L-552.5 -247.5 L-535.4414430746917 -230.46591733139954 z"/>
<path fill="#3c3c3c" stroke="#3c3c3c" d="M-520 -234.05172413793102 L-529.5025380710659 -224.53553299492384 L-543.4021029731689 -238.41515591007976 L-539.6428571428571 -242.17980295566502 z"/>
<path fill="#3c3c3c" stroke="#3c3c3c" d="M-515.6048387096773 488.45 L-528.3928571428571 488.45 L-528.3928571428571 -237.52463054187191 L-515.6048387096773 -232.23303670745273 z"/>
<path fill="#3c3c3c" stroke="#3c3c3c" d="M-515.6048387096773 526.5749999999999 L-515.6048387096773 642.5 L-528.3928571428571 642.5 L-528.3928571428571 526.5749999999999 z"/>
<path fill="#3c3c3c" stroke="#3c3c3c" d="M-552.5 -247.5 L-552.5 -257.5 L-548.3620689655172 -257.5 z"/>
<path fill="#3c3c3c" stroke="#3c3c3c" d="M-552.5 642.5 L-552.5 526.5749999999999 L-528.3928571428571 526.5749999999999 L-528.3928571428571 642.5 z"/>
<path fill="#3c3c3c" stroke="#3c3c3c" d="M-552.5 -247.5 L-528.3928571428571 -237.52463054187191 L-528.3928571428571 488.45 L-552.5 488.45 z"/>
<path fill="#3c3c3c" stroke="#3c3c3c" d="M-539.6428571428571 488.45 L-565.3571428571428 488.45 L-584.9999999999999 488.45 L-589.3951612903226 488.45 L-576.6071428571428 488.45 L-552.5 488.45 L-528.3928571428571 488.45 L-515.6048387096773 488.45 L-520 488.45 z"/>
<path fill="#3c3c3c" stroke="#3c3c3c" d="M-548.3620689655172 -257.5 L-562.5143678160919 -257.5 L-552.5 -247.5 z"/>
<path fill="#3c3c3c" stroke="#3c3c3c" d="M-539.6428571428571 526.5749999999999 L-539.6428571428571 642.5 L-520 642.5 L-520 526.5749999999999 z"/>
<path fill="#3c3c3c" stroke="#3c3c3c" d="M-539.6428571428571 -242.17980295566502 L-539.6428571428571 488.45 L-520 488.45 L-520 -234.05172413793102 z"/>
<path fill="#3c3c3c" stroke="#3c3c3c" d="M-539.6428571428571 526.5749999999999 L-565.3571428571428 526.5749999999999 L-565.3571428571428 642.5 L-539.6428571428571 642.5 z"/>
<path fill="#3c3c3c" stroke="#3c3c3c" d="M-539.6428571428571 488.45 L-539.6428571428571 -242.17980295566502 L-543.4021029731689 -238.41515591007976 L-561.597897026831 -256.5848440899202 L-560.6840541094487 -257.5 L-565.3571428571428 -257.5 L-565.3571428571428 488.45 z"/>
<path fill="#3c3c3c" stroke="#3c3c3c" d="M-576.6071428571428 488.45 L-589.3951612903226 488.45 L-589.3951612903226 -257.5 L-576.6071428571428 -257.5 z"/>
<path fill="#3c3c3c" stroke="#3c3c3c" d="M-576.6071428571428 526.5749999999999 L-576.6071428571428 642.5 L-589.3951612903226 642.5 L-589.3951612903226 526.5749999999999 z"/>
<path fill="#3c3c3c" stroke="#3c3c3c" d="M-576.6071428571428 526.5749999999999 L-552.5 526.5749999999999 L-552.5 642.5 L-576.6071428571428 642.5 z"/>
<path fill="#3c3c3c" stroke="#3c3c3c" d="M-552.5 -257.5 L-552.5 488.45 L-576.6071428571428 488.45 L-576.6071428571428 -257.5 z"/>
<path fill="#3c3c3c" stroke="#3c3c3c" d="M-562.5143678160919 -257.5 L-562.5143678160919 -257.5 L-548.3620689655172 -257.5 L-552.5 -257.5 L-576.6071428571428 -257.5 L-589.3951612903226 -257.5 L-584.9999999999999 -257.5 L-565.3571428571428 -257.5 L-560.6840541094487 -257.5 z"/>
<path fill="#3c3c3c" stroke="#3c3c3c" d="M-528.3928571428571 642.5 L-515.6048387096773 642.5 L-520 642.5 L-539.6428571428571 642.5 L-565.3571428571428 642.5 L-584.9999999999999 642.5 L-589.3951612903226 642.5 L-576.6071428571428 642.5 L-552.5 642.5 z"/>
<path fill="#3c3c3c" stroke="#3c3c3c" d="M-350.12482040229884 -469.375 L-365.0115290018446 -469.375 L-383.0835493127227 -469.375 L-376.87230989956953 -469.375 L-350.12482040229884 -469.375 z"/>
<path fill="#3c3c3c" stroke="#3c3c3c" d="M-383.0835493127227 -469.375 L-578.6075405272637 -273.57008351072534 L-575.497461928934 -270.46446700507613 L-376.87230989956953 -469.375 z"/>
<path fill="#3c3c3c" stroke="#3c3c3c" d="M-323.4617476432197 -442.7501812907904 L-535.4414430746917 -230.46591733139954 L-552.5 -247.5 L-340.5203045685279 -459.78426395939084 z"/>
<path fill="#3c3c3c" stroke="#3c3c3c" d="M-314.4127640412641 -433.71418044866545 L-526.3924594727362 -221.4299164892746 L-535.4414430746917 -230.46591733139954 L-323.4617476432197 -442.7501812907904 z"/>
<path fill="#3c3c3c" stroke="#3c3c3c" d="M-317.5228426395939 -436.8197969543147 L-529.5025380710659 -224.53553299492384 L-526.3924594727362 -221.4299164892746 L-314.4127640412641 -433.71418044866545 z"/>
<path fill="#3c3c3c" stroke="#3c3c3c" d="M-331.4224075416968 -450.6994198694706 L-543.4021029731689 -238.41515591007976 L-529.5025380710659 -224.53553299492384 L-317.5228426395939 -436.8197969543147 z"/>
<path fill="#3c3c3c" stroke="#3c3c3c" d="M-575.497461928934 -270.46446700507613 L-561.597897026831 -256.5848440899202 L-349.6182015953589 -468.8691080493111 L-350.12482040229884 -469.375 L-376.87230989956953 -469.375 z"/>
<path fill="#3c3c3c" stroke="#3c3c3c" d="M-349.6182015953589 -468.8691080493111 L-561.597897026831 -256.5848440899202 L-543.4021029731689 -238.41515591007976 L-331.4224075416968 -450.6994198694706 z"/>
<path fill="#3c3c3c" stroke="#3c3c3c" d="M-365.0115290018446 -469.375 L-569.5585569253082 -264.53408266860043 L-578.6075405272637 -273.57008351072534 L-383.0835493127227 -469.375 z"/>
<path fill="#3c3c3c" stroke="#3c3c3c" d="M-569.5585569253082 -264.53408266860043 L-365.0115290018446 -469.375 L-350.12482040229884 -469.375 L-340.5203045685279 -459.78426395939084 L-552.5 -247.5 z"/>
<path fill="#3c3c3c" stroke="#3c3c3c" d="M-340.5203045685279 -459.78426395939084 L-350.12482040229884 -469.375 L-350.12482040229884 -469.375 L-349.6182015953589 -468.8691080493111 L-331.4224075416968 -450.6994198694706 L-317.5228426395939 -436.8197969543147 L-314.4127640412641 -433.71418044866545 L-323.4617476432197 -442.7501812907904 z"/>
<path fill="#3c3c3c" stroke="#3c3c3c" d="M-535.4414430746917 -230.46591733139954 L-526.3924594727362 -221.4299164892746 L-529.5025380710659 -224.53553299492384 L-543.4021029731689 -238.41515591007976 L-561.597897026831 -256.5848440899202 L-575.497461928934 -270.46446700507613 L-578.6075405272637 -273.57008351072534 L-569.5585569253082 -264.53408266860043 L-552.5 -247.5 z"/>
<path fill="#bababa" stroke="#bababa" d="M-19.075 507.5 L-19.075 488.45 L-19.075 488.45 L-19.075 507.5 z"/>
<path fill="#bababa" stroke="#bababa" d="M633.425 488.45 L633.425 488.45 L633.425 507.5 L633.425 507.5 z"/>
<path fill="#bababa" stroke="#bababa" d="M19.049999999999997 488.45 L19.049999999999997 488.45 L19.049999999999997 507.5 L19.049999999999997 507.5 z"/>
<path fill="#bababa" stroke="#bababa" d="M-19.075 488.45 L-19.075 507.5 L19.049999999999997 507.5 L19.049999999999997 488.45 L633.425 488.45 L633.425 507.5 L652.5 507.5 L652.5 526.5749999999999 L-652.5 526.5749999999999 L-652.5 507.5 L-633.4499999999999 507.5 L-633.4499999999999 488.45 z"/>
<path fill="#bababa" stroke="#bababa" d="M-19.075 507.5 L19.049999999999997 507.5 L19.049999999999997 507.5 L-19.075 507.5 z"/>
<path fill="#bababa" stroke="#bababa" d="M652.5 507.5 L633.425 507.5 L633.425 507.5 L652.5 507.5 z"/>
<path fill="#bababa" stroke="#bababa" d="M-652.5 507.5 L-633.4499999999999 507.5 L-633.4499999999999 507.5 L-652.5 507.5 z"/>
<path fill="#bababa" stroke="#bababa" d="M-633.4499999999999 507.5 L-633.4499999999999 507.5 L-633.4499999999999 488.45 L-633.4499999999999 488.45 z"/>
<path fill="#bababa" stroke="#bababa" d="M-633.4499999999999 488.45 L-19.075 488.45 L-19.075 488.45 L-633.4499999999999 488.45 z"/>
<path fill="#bababa" stroke="#bababa" d="M633.425 488.45 L633.425 488.45 L19.049999999999997 488.45 L19.049999999999997 488.45 z"/>
<path fill="#bababa" stroke="#bababa" d="M19.049999999999997 507.5 L-19.075 507.5 L-19.075 488.45 L-633.4499999999999 488.45 L-633.4499999999999 507.5 L-652.5 507.5 L-652.5 526.5749999999999 L652.5 526.5749999999999 L652.5 507.5 L633.425 507.5 L633.425 488.45 L19.049999999999997 488.45 z"/>
<path fill="#bababa" stroke="#bababa" d="M652.5 526.5749999999999 L652.5 526.5749999999999 L-652.5 526.5749999999999 L-652.5 526.5749999999999 z"/>
<path fill="#bababa" stroke="#bababa" d="M-652.5 526.5749999999999 L-652.5 526.5749999999999 L-652.5 507.5 L-652.5 507.5 z"/>
<path fill="#bababa" stroke="#bababa" d="M652.5 507.5 L652.5 526.5749999999999 L652.5 526.5749999999999 L652.5 507.5 z"/>
<path fill="#bababa" stroke="#bababa" d="M-633.4499999999999 -469.375 L-633.4499999999999 -469.375 L-652.5 -469.375 L-652.5 -469.375 z"/>
<path fill="#bababa" stroke="#bababa" d="M-652.5 -469.375 L-652.5 -469.375 L-652.5 -507.5 L-652.5 -507.5 z"/>
<path fill="#bababa" stroke="#bababa" d="M-671.5749999999999 507.5 L-671.5749999999999 -507.5 L-652.5 -507.5 L-652.5 -469.375 L-633.4499999999999 -469.375 L-633.4499999999999 507.5 z"/>
<path fill="#bababa" stroke="#bababa" d="M-671.5749999999999 -507.5 L-671.5749999999999 -507.5 L-652.5 -507.5 L-652.5 -507.5 z"/>
<path fill="#bababa" stroke="#bababa" d="M-633.4499999999999 -469.375 L-633.4499999999999 507.5 L-633.4499999999999 507.5 L-633.4499999999999 -469.375 z"/>
<path fill="#bababa" stroke="#bababa" d="M-652.5 -507.5 L-671.5749999999999 -507.5 L-671.5749999999999 507.5 L-633.4499999999999 507.5 L-633.4499999999999 -469.375 L-652.5 -469.375 z"/>
<path fill="#bababa" stroke="#bababa" d="M-671.5749999999999 507.5 L-671.5749999999999 507.5 L-671.5749999999999 -507.5 L-671.5749999999999 -507.5 z"/>
<path fill="#bababa" stroke="#bababa" d="M-671.5749999999999 507.5 L-633.4499999999999 507.5 L-633.4499999999999 507.5 L-671.5749999999999 507.5 z"/>
<path fill="#bababa" stroke="#bababa" d="M-19.075 -469.375 L19.049999999999997 -469.375 L19.049999999999997 -469.375 L-19.075 -469.375 z"/>
<path fill="#bababa" stroke="#bababa" d="M19.049999999999997 507.5 L-19.075 507.5 L-19.075 -469.375 L19.049999999999997 -469.375 z"/>
<path fill="#bababa" stroke="#bababa" d="M-19.075 507.5 L19.049999999999997 507.5 L19.049999999999997 -469.375 L-19.075 -469.375 z"/>
<path fill="#bababa" stroke="#bababa" d="M19.049999999999997 507.5 L19.049999999999997 507.5 L19.049999999999997 -469.375 L19.049999999999997 -469.375 z"/>
<path fill="#bababa" stroke="#bababa" d="M-19.075 -469.375 L-19.075 507.5 L-19.075 507.5 L-19.075 -469.375 z"/>
<path fill="#bababa" stroke="#bababa" d="M-19.075 507.5 L19.049999999999997 507.5 L19.049999999999997 507.5 L-19.075 507.5 z"/>
<path fill="#bababa" stroke="#bababa" d="M633.425 -469.375 L633.425 -469.375 L652.5 -469.375 L652.5 -469.375 z"/>
<path fill="#bababa" stroke="#bababa" d="M652.5 -469.375 L652.5 -507.5 L652.5 -507.5 L652.5 -469.375 z"/>
<path fill="#bababa" stroke="#bababa" d="M671.55 -507.5 L652.5 -507.5 L652.5 -507.5 L671.55 -507.5 z"/>
<path fill="#bababa" stroke="#bababa" d="M671.55 -507.5 L652.5 -507.5 L652.5 -469.375 L633.425 -469.375 L633.425 507.5 L671.55 507.5 z"/>
<path fill="#bababa" stroke="#bababa" d="M633.425 507.5 L633.425 -469.375 L652.5 -469.375 L652.5 -507.5 L671.55 -507.5 L671.55 507.5 z"/>
<path fill="#bababa" stroke="#bababa" d="M671.55 507.5 L671.55 507.5 L671.55 -507.5 L671.55 -507.5 z"/>
<path fill="#bababa" stroke="#bababa" d="M633.425 -469.375 L633.425 -469.375 L633.425 507.5 L633.425 507.5 z"/>
<path fill="#bababa" stroke="#bababa" d="M633.425 507.5 L671.55 507.5 L671.55 507.5 L633.425 507.5 z"/>
<path fill="#bababa" stroke="#bababa" d="M652.5 -507.5 L652.5 -469.375 L-652.5 -469.375 L-652.5 -507.5 z"/>
<path fill="#bababa" stroke="#bababa" d="M652.5 -507.5 L652.5 -507.5 L-652.5 -507.5 L-652.5 -507.5 z"/>
<path fill="#bababa" stroke="#bababa" d="M652.5 -469.375 L652.5 -507.5 L-652.5 -507.5 L-652.5 -469.375 z"/>
<path fill="#bababa" stroke="#bababa" d="M652.5 -469.375 L652.5 -469.375 L-652.5 -469.375 L-652.5 -469.375 z"/>
<path fill="#bababa" stroke="#bababa" d="M-652.5 -507.5 L-652.5 -469.375 L-652.5 -469.375 L-652.5 -507.5 z"/>
<path fill="#bababa" stroke="#bababa" d="M652.5 -469.375 L652.5 -507.5 L652.5 -507.5 L652.5 -469.375 z"/>
</svg>